<svg width="16" height="12" viewBox="0 0 16 12" fill="none" xmlns="http://www.w3.org/2000/svg">
<path d="M15.6466 4.93804V5.36284C15.6466 5.71477 15.3613 6.00005 15.0094 6.00005H14.797L14.1037 10.8531C14.014 11.4809 13.4763 11.9473 12.8421 11.9473H3.15819C2.52399 11.9473 1.98629 11.4809 1.89658 10.8531L1.2033 6.00005H0.990903C0.63898 6.00005 0.353699 5.71477 0.353699 5.36284V4.93804C0.353699 4.58612 0.63898 4.30084 0.990903 4.30084H2.77882L5.61384 0.402714C5.88983 0.0232593 6.42116 -0.0606659 6.80066 0.215323C7.18014 0.491312 7.26404 1.02266 6.98805 1.40214L4.87989 4.30084H11.1204L9.01224 1.40212C8.73625 1.02266 8.82017 0.491286 9.19966 0.215297C9.57908 -0.0606924 10.1105 0.0232062 10.3865 0.402688L13.2215 4.30084H15.0094C15.3613 4.30084 15.6466 4.58612 15.6466 4.93804ZM8.63735 9.61087V6.63725C8.63735 6.28533 8.35207 6.00005 8.00015 6.00005C7.64822 6.00005 7.36294 6.28533 7.36294 6.63725V9.61087C7.36294 9.96279 7.64822 10.2481 8.00015 10.2481C8.35207 10.2481 8.63735 9.96279 8.63735 9.61087ZM11.611 9.61087V6.63725C11.611 6.28533 11.3257 6.00005 10.9738 6.00005C10.6218 6.00005 10.3366 6.28533 10.3366 6.63725V9.61087C10.3366 9.96279 10.6218 10.2481 10.9738 10.2481C11.3257 10.2481 11.611 9.96279 11.611 9.61087ZM5.66373 9.61087V6.63725C5.66373 6.28533 5.37845 6.00005 5.02653 6.00005C4.67461 6.00005 4.38932 6.28533 4.38932 6.63725V9.61087C4.38932 9.96279 4.67461 10.2481 5.02653 10.2481C5.37845 10.2481 5.66373 9.96279 5.66373 9.61087Z" fill="white"/>
</svg>
