<svg width="20" height="20" viewBox="0 0 20 20" fill="none" xmlns="http://www.w3.org/2000/svg">
<path fill-rule="evenodd" clip-rule="evenodd" d="M3.33332 6.45831C2.75803 6.45831 2.29166 6.92468 2.29166 7.49998V15.8333C2.29166 16.4086 2.75803 16.875 3.33332 16.875H16.6667C17.242 16.875 17.7083 16.4086 17.7083 15.8333V7.49998C17.7083 6.92468 17.242 6.45831 16.6667 6.45831H3.33332ZM1.04166 7.49998C1.04166 6.23433 2.06767 5.20831 3.33332 5.20831H16.6667C17.9323 5.20831 18.9583 6.23433 18.9583 7.49998V15.8333C18.9583 17.099 17.9323 18.125 16.6667 18.125H3.33332C2.06767 18.125 1.04166 17.099 1.04166 15.8333V7.49998Z" fill="#D8DEEB"/>
<path fill-rule="evenodd" clip-rule="evenodd" d="M6.71287 2.54621C7.14264 2.11644 7.72554 1.875 8.33332 1.875H11.6667C12.2744 1.875 12.8573 2.11644 13.2871 2.54621C13.7169 2.97598 13.9583 3.55888 13.9583 4.16667V6.07224H12.7083V4.16667C12.7083 3.8904 12.5986 3.62545 12.4032 3.4301C12.2079 3.23475 11.9429 3.125 11.6667 3.125H8.33332C8.05706 3.125 7.7921 3.23475 7.59675 3.4301C7.4014 3.62545 7.29166 3.8904 7.29166 4.16667V6.07224H6.04166V4.16667C6.04166 3.55888 6.2831 2.97598 6.71287 2.54621Z" fill="#D8DEEB"/>
<path fill-rule="evenodd" clip-rule="evenodd" d="M4.26338 10.0722C4.95382 10.4595 5.85235 10.6602 6.76013 10.6602H13.0861C13.9938 10.6602 14.8924 10.4595 15.5828 10.0722C16.2572 9.69386 16.7981 9.0887 16.7981 8.31366V6.28516H15.7V8.31366C15.7 8.47971 15.5743 8.77709 15.0624 9.06424C14.5665 9.3424 13.856 9.51554 13.0861 9.51554H6.76013C5.99016 9.51554 5.27967 9.3424 4.78377 9.06424C4.27186 8.77709 4.14623 8.47971 4.14623 8.31366V6.28516H3.0481V8.31366C3.0481 9.0887 3.58895 9.69386 4.26338 10.0722Z" fill="#D8DEEB"/>
<path fill-rule="evenodd" clip-rule="evenodd" d="M8.07294 12.2916C8.07294 11.9464 8.35276 11.6666 8.69794 11.6666H11.3021C11.6473 11.6666 11.9271 11.9464 11.9271 12.2916C11.9271 12.6368 11.6473 12.9166 11.3021 12.9166H8.69794C8.35276 12.9166 8.07294 12.6368 8.07294 12.2916Z" fill="#D8DEEB"/>
</svg>
