<svg width="16" height="16" viewBox="0 0 16 16" fill="none" xmlns="http://www.w3.org/2000/svg">
<path fill-rule="evenodd" clip-rule="evenodd" d="M14.6233 0.568581C14.576 0.450678 14.485 0.355566 14.3693 0.303031C14.2536 0.250496 14.1221 0.244583 14.0022 0.286522C13.8823 0.328461 13.7831 0.415022 13.7254 0.528199C13.6677 0.641376 13.6558 0.772454 13.6922 0.894165C14.7913 2.7212 14.5776 3.88399 13.4303 4.75548L12.9668 4.09125C12.811 3.86849 12.4625 3.68325 12.1916 3.67999L9.59021 3.69141C9.27243 3.70101 8.96314 3.79631 8.69506 3.96722L1.02955 9.34222C0.851251 9.46769 0.729932 9.6587 0.692156 9.87342C0.65438 10.0881 0.703226 10.3091 0.827999 10.4879L4.3115 15.472C4.57263 15.8433 4.9896 15.7984 5.3617 15.5389L13.0272 10.1631C13.2475 10.0073 13.5021 9.67106 13.5919 9.41402L14.4062 6.8477C14.496 6.59148 14.4413 6.20062 14.2855 5.97785L14.0031 5.57311C15.5437 4.39236 15.7093 2.3897 14.6233 0.568581ZM12.6886 7.38871C12.5473 7.48756 12.388 7.55762 12.2197 7.59488C12.0514 7.63214 11.8774 7.63587 11.7077 7.60586C11.5379 7.57585 11.3758 7.51269 11.2305 7.41999C11.0851 7.32728 10.9595 7.20685 10.8607 7.06557C10.6607 6.77969 10.5824 6.42615 10.6428 6.08254C10.7032 5.73893 10.8975 5.43334 11.183 5.23284C11.4069 5.07602 11.6741 4.99305 11.9474 4.99554C12.2207 4.99803 12.4864 5.08584 12.7073 5.24671C12.4854 5.38053 12.3328 5.45887 12.3042 5.47111C12.2031 5.51934 12.1213 5.6005 12.0723 5.70128C12.0233 5.80207 12.01 5.91651 12.0346 6.02584C12.0591 6.13518 12.1201 6.23293 12.2075 6.30308C12.2949 6.37324 12.4035 6.41162 12.5156 6.41196C12.5857 6.41196 12.6576 6.39564 12.7253 6.36382C12.8836 6.28874 13.0533 6.1998 13.2304 6.09454C13.2711 6.33939 13.2419 6.59076 13.146 6.81972C13.0502 7.04868 12.8916 7.24591 12.6886 7.38871ZM6.93923 7.14017C7.24648 6.91825 7.67547 6.98743 7.89739 7.29469L9.488 9.49695C9.70992 9.80421 9.64074 10.2332 9.33348 10.4551C9.02622 10.677 8.59723 10.6079 8.37531 10.3006L6.78471 8.09834C6.56279 7.79108 6.63197 7.36209 6.93923 7.14017ZM5.50346 8.95208C5.28154 8.64482 4.85255 8.57564 4.5453 8.79756C4.23804 9.01948 4.16886 9.44847 4.39078 9.75573L5.98138 11.958C6.2033 12.2652 6.63229 12.3344 6.93955 12.1125C7.24681 11.8906 7.31599 11.4616 7.09407 11.1543L5.50346 8.95208Z" fill="white"/>
</svg>
