<svg width="14" height="14" viewBox="0 0 14 14" fill="none" xmlns="http://www.w3.org/2000/svg">
<path d="M12.7926 2.94324H10.1591V2.43614C10.1586 2.03281 9.992 1.64613 9.69583 1.36093C9.39966 1.07573 8.99811 0.915309 8.57926 0.914856H5.41967C5.00082 0.915309 4.59927 1.07573 4.3031 1.36093C4.00694 1.64613 3.84034 2.03281 3.83987 2.43614V2.94324H1.2074C0.928174 2.94354 0.660471 3.05049 0.463026 3.24062C0.265581 3.43075 0.154519 3.68854 0.154205 3.95743V12.071C0.154519 12.3398 0.265581 12.5976 0.463026 12.7878C0.660471 12.9779 0.928174 13.0848 1.2074 13.0851H12.7926C13.0718 13.0848 13.3395 12.9779 13.537 12.7878C13.7344 12.5976 13.8455 12.3398 13.8458 12.071V3.95743C13.8455 3.68854 13.7344 3.43075 13.537 3.24062C13.3395 3.05049 13.0718 2.94354 12.7926 2.94324ZM4.89307 5.47871C4.89307 5.6132 4.83759 5.74219 4.73883 5.83728C4.64008 5.93238 4.50613 5.98581 4.36647 5.98581C4.22681 5.98581 4.09287 5.93238 3.99411 5.83728C3.89535 5.74219 3.83987 5.6132 3.83987 5.47871V4.46452C3.83987 4.33003 3.89535 4.20105 3.99411 4.10595C4.09287 4.01085 4.22681 3.95743 4.36647 3.95743C4.50613 3.95743 4.64008 4.01085 4.73883 4.10595C4.83759 4.20105 4.89307 4.33003 4.89307 4.46452V5.47871ZM4.89307 2.43614C4.89324 2.3017 4.94878 2.17282 5.0475 2.07776C5.14622 1.98269 5.28006 1.92921 5.41967 1.92905H8.57926C8.71887 1.92921 8.85271 1.98269 8.95143 2.07776C9.05015 2.17282 9.10569 2.3017 9.10586 2.43614V2.94324H4.89307V2.43614ZM10.1591 5.47871C10.1591 5.6132 10.1036 5.74219 10.0048 5.83728C9.90607 5.93238 9.77212 5.98581 9.63246 5.98581C9.4928 5.98581 9.35885 5.93238 9.2601 5.83728C9.16134 5.74219 9.10586 5.6132 9.10586 5.47871V4.46452C9.10586 4.33003 9.16134 4.20105 9.2601 4.10595C9.35885 4.01085 9.4928 3.95743 9.63246 3.95743C9.77212 3.95743 9.90607 4.01085 10.0048 4.10595C10.1036 4.20105 10.1591 4.33003 10.1591 4.46452V5.47871Z" fill="white"/>
</svg>
