<svg width="12" height="14" viewBox="0 0 12 14" fill="none" xmlns="http://www.w3.org/2000/svg">
<path d="M10.7481 1.51888H7.72007C7.59903 1.15913 7.36812 0.846454 7.05989 0.624948C6.75165 0.403442 6.38167 0.284286 6.0021 0.284286C5.62253 0.284286 5.25254 0.403442 4.94431 0.624948C4.63608 0.846454 4.40517 1.15913 4.28413 1.51888H1.37389C1.27089 1.50399 1.16591 1.5111 1.06587 1.53976C0.965832 1.56841 0.873005 1.61796 0.793519 1.68513C0.714032 1.75229 0.649694 1.83555 0.604748 1.92941C0.559802 2.02327 0.535272 2.12559 0.532776 2.22962V13.0043C0.533327 13.0981 0.552365 13.191 0.588804 13.2775C0.625243 13.3641 0.678369 13.4426 0.745148 13.5086C0.811928 13.5746 0.891053 13.6268 0.978006 13.6622C1.06496 13.6976 1.15804 13.7155 1.25193 13.715H10.7481C10.842 13.7155 10.935 13.6976 11.022 13.6622C11.1089 13.6268 11.1881 13.5746 11.2548 13.5086C11.3216 13.4426 11.3747 13.3641 11.4112 13.2775C11.4476 13.191 11.4667 13.0981 11.4672 13.0043V2.22962C11.4667 2.13573 11.4476 2.04287 11.4112 1.95634C11.3747 1.86981 11.3216 1.79131 11.2548 1.72531C11.1881 1.65931 11.1089 1.60711 11.022 1.57169C10.935 1.53628 10.842 1.51833 10.7481 1.51888V1.51888ZM3.17807 2.78055C3.17807 2.66901 3.22238 2.56204 3.30125 2.48317C3.38012 2.4043 3.48709 2.36 3.59862 2.36H5.04534V2.09505C5.04534 1.83683 5.14791 1.5892 5.33049 1.40662C5.51308 1.22403 5.76071 1.12146 6.01892 1.12146C6.27713 1.12146 6.52477 1.22403 6.70735 1.40662C6.88993 1.5892 6.99251 1.83683 6.99251 2.09505V2.38102H8.43922C8.55076 2.38102 8.65773 2.42533 8.7366 2.5042C8.81546 2.58307 8.85977 2.69004 8.85977 2.80158V3.55858H3.16125L3.17807 2.78055ZM9.28453 6.66228L5.44907 10.4977L3.24536 8.29403C3.13382 8.18249 3.07116 8.03122 3.07116 7.87348C3.07116 7.71574 3.13382 7.56446 3.24536 7.45292C3.3569 7.34138 3.50817 7.27872 3.66591 7.27872C3.82365 7.27872 3.97493 7.34138 4.08647 7.45292L5.45748 8.82393L8.46025 5.82117C8.57178 5.70963 8.72306 5.64697 8.8808 5.64697C9.03854 5.64697 9.18982 5.70963 9.30136 5.82117C9.41289 5.93271 9.47556 6.08398 9.47556 6.24172C9.47556 6.39946 9.41289 6.55074 9.30136 6.66228H9.28453Z" fill="white"/>
</svg>
