<svg width="16" height="16" viewBox="0 0 16 16" fill="none" xmlns="http://www.w3.org/2000/svg">
<g clip-path="url(#clip0_1303_2534)">
<path d="M15.5 5.75H9.775L8 0.5L6.225 5.75H0.5L5.125 9L3.35 14.25L8 11L12.625 14.25L10.85 9L15.5 5.75Z" fill="#FFCE31"/>
<path d="M11.55 5.07498L12.55 2.22498L9.92499 4.02498L10.3 5.07498H11.55ZM6.97499 12.5L7.99999 15.5L9.02499 12.5L7.99999 11.8L6.97499 12.5ZM12.675 8.57498L11.725 9.22498L12.125 10.425H15.35L12.675 8.57498ZM6.07499 4.02498L3.44999 2.22498L4.44999 5.07498H5.69999L6.07499 4.02498ZM3.32499 8.57498L0.649994 10.425H3.87499L4.27499 9.22498L3.32499 8.57498Z" fill="#FFDF85"/>
</g>
<defs>
<clipPath id="clip0_1303_2534">
<rect width="16" height="16" fill="white"/>
</clipPath>
</defs>
</svg>
