<svg width="16" height="16" viewBox="0 0 16 16" fill="none" xmlns="http://www.w3.org/2000/svg">
<path d="M5.38475 9.5125C5.38475 9.182 5.15725 8.933 4.85575 8.933H0.900746C0.598496 8.933 0.371246 9.182 0.371246 9.5125C0.371246 9.83425 0.601496 10.0775 0.907746 10.0775H2.2815V14.5308C2.2815 14.8555 2.528 15.0803 2.88075 15.0803C3.23475 15.0803 3.48225 14.8555 3.48225 14.5308V10.0775H4.856C5.15225 10.0775 5.38475 9.82925 5.38475 9.5125ZM7.7625 8.825C6.0805 8.825 4.9925 10.0643 4.9925 11.9813C4.9925 13.9075 6.0795 15.1523 7.7625 15.1523C9.43625 15.1523 10.5175 13.9105 10.5175 11.9895C10.5175 10.0668 9.43725 8.825 7.7625 8.825ZM7.7625 14.0155C6.80875 14.0155 6.2165 13.2395 6.2165 11.9895C6.2165 10.7345 6.80875 9.954 7.7625 9.954C8.7075 9.954 9.29425 10.718 9.29425 11.9455C9.295 13.261 8.73625 14.0155 7.7625 14.0155ZM13.6 8.9325H12.006C11.3512 8.9325 11.0187 9.27925 11.0187 9.96375V14.5155C11.0187 14.8535 11.2575 15.08 11.6125 15.08C11.961 15.08 12.2052 14.851 12.2052 14.523V12.7465H13.5722C14.8605 12.7465 15.63 12.0155 15.63 10.7895C15.63 9.6275 14.871 8.9325 13.6 8.9325ZM14.4145 10.8043C14.4145 11.3615 14.1342 11.6325 13.5565 11.6325H12.205V10.0545H13.5565C14.1342 10.0548 14.4145 10.2998 14.4145 10.8043ZM9.45625 7.3855V4.809H10.178C10.6022 4.809 10.9512 4.40275 10.9927 3.882L7.7445 0.145752L4.51775 3.8805C4.55975 4.40125 4.90825 4.80875 5.333 4.80875H6.05475V7.38525L9.45625 7.3855Z" fill="#606483"/>
</svg>
