<svg width="18" height="18" viewBox="0 0 18 18" fill="none" xmlns="http://www.w3.org/2000/svg">
<path d="M11.4778 13.3392H6.52235C6.25949 13.3392 6.0074 13.4436 5.82154 13.6295C5.63567 13.8153 5.53125 14.0674 5.53125 14.3303V15.3214C5.53125 15.5842 5.63567 15.8363 5.82154 16.0222C6.0074 16.2081 6.25949 16.3125 6.52235 16.3125H11.4778C11.7407 16.3125 11.9928 16.2081 12.1786 16.0222C12.3645 15.8363 12.4689 15.5842 12.4689 15.3214V14.3303C12.4689 14.0674 12.3645 13.8153 12.1786 13.6295C11.9928 13.4436 11.7407 13.3392 11.4778 13.3392Z" fill="#606483"/>
<path d="M15.2969 7.77923L9.35036 1.83266C9.25743 1.73976 9.1314 1.68757 9 1.68757C8.8686 1.68757 8.74258 1.73976 8.64965 1.83266L2.70307 7.77923C2.63379 7.84854 2.58661 7.93683 2.5675 8.03294C2.54839 8.12905 2.5582 8.22867 2.5957 8.31921C2.6332 8.40975 2.6967 8.48713 2.77817 8.54158C2.85964 8.59604 2.95543 8.62511 3.05343 8.62513H5.53117V10.9276C5.53143 11.1904 5.63593 11.4423 5.82174 11.6282C6.00755 11.814 6.25949 11.9185 6.52226 11.9187H11.4777C11.7405 11.9183 11.9923 11.8138 12.1781 11.628C12.3639 11.4422 12.4684 11.1904 12.4688 10.9276V8.62513H14.9466C15.0446 8.62511 15.1404 8.59604 15.2218 8.54158C15.3033 8.48713 15.3668 8.40975 15.4043 8.31921C15.4418 8.22867 15.4516 8.12905 15.4325 8.03294C15.4134 7.93683 15.3662 7.84854 15.2969 7.77923Z" fill="#606483"/>
</svg>
