<svg width="20" height="14" viewBox="0 0 20 14" fill="none" xmlns="http://www.w3.org/2000/svg">
<path d="M16.125 5.36666C15.5583 2.49166 13.0333 0.333328 10 0.333328C7.59167 0.333328 5.5 1.69999 4.45833 3.69999C1.95 3.96666 0 6.09166 0 8.66666C0 11.425 2.24167 13.6667 5 13.6667H15.8333C18.1333 13.6667 20 11.8 20 9.49999C20 7.29999 18.2917 5.51666 16.125 5.36666ZM12.9596 7.83333C13.405 7.83333 13.6281 8.3719 13.3131 8.68688L10.7071 11.2929C10.3166 11.6834 9.68342 11.6834 9.29289 11.2929L6.68689 8.68688C6.3719 8.3719 6.59499 7.83333 7.04044 7.83333H8.33333V5.49999C8.33333 4.94771 8.78105 4.49999 9.33333 4.49999H10.6667C11.219 4.49999 11.6667 4.94771 11.6667 5.49999V7.83333H12.9596Z" fill="#606483"/>
</svg>
