<svg width="12" height="10" viewBox="0 0 12 10" fill="none" xmlns="http://www.w3.org/2000/svg">
<path d="M11.9762 4.86419C11.5057 3.64721 10.6889 2.59477 9.62682 1.83694C8.56472 1.0791 7.30383 0.649098 6 0.600067C4.69617 0.649098 3.43528 1.0791 2.37318 1.83694C1.31107 2.59477 0.494308 3.64721 0.0238305 4.86419C-0.0079435 4.95207 -0.0079435 5.04831 0.0238305 5.1362C0.494308 6.35317 1.31107 7.40561 2.37318 8.16345C3.43528 8.92128 4.69617 9.35129 6 9.40032C7.30383 9.35129 8.56472 8.92128 9.62682 8.16345C10.6889 7.40561 11.5057 6.35317 11.9762 5.1362C12.0079 5.04831 12.0079 4.95207 11.9762 4.86419V4.86419ZM6 7.60027C5.48575 7.60027 4.98306 7.44777 4.55548 7.16207C4.1279 6.87637 3.79464 6.4703 3.59785 5.9952C3.40105 5.5201 3.34956 4.99731 3.44989 4.49294C3.55021 3.98858 3.79784 3.52529 4.16147 3.16166C4.5251 2.79804 4.98839 2.5504 5.49275 2.45008C5.99712 2.34975 6.5199 2.40124 6.995 2.59804C7.47011 2.79483 7.87618 3.12809 8.16188 3.55567C8.44758 3.98325 8.60007 4.48595 8.60007 5.00019C8.59902 5.68945 8.32474 6.35017 7.83736 6.83755C7.34998 7.32493 6.68926 7.59921 6 7.60027V7.60027Z" fill="#606483"/>
</svg>
