<svg width="16" height="16" viewBox="0 0 16 16" fill="none" xmlns="http://www.w3.org/2000/svg">
<path d="M8.00019 9.60024C8.88387 9.60024 9.60024 8.88387 9.60024 8.00019C9.60024 7.11651 8.88387 6.40015 8.00019 6.40015C7.11651 6.40015 6.40015 7.11651 6.40015 8.00019C6.40015 8.88387 7.11651 9.60024 8.00019 9.60024Z" fill="#606483"/>
<path d="M13.9762 7.86419C13.5057 6.64721 12.6889 5.59477 11.6268 4.83694C10.5647 4.0791 9.30383 3.6491 8 3.60007C6.69617 3.6491 5.43528 4.0791 4.37318 4.83694C3.31107 5.59477 2.49431 6.64721 2.02383 7.86419C1.99206 7.95207 1.99206 8.04831 2.02383 8.1362C2.49431 9.35317 3.31107 10.4056 4.37318 11.1634C5.43528 11.9213 6.69617 12.3513 8 12.4003C9.30383 12.3513 10.5647 11.9213 11.6268 11.1634C12.6889 10.4056 13.5057 9.35317 13.9762 8.1362C14.0079 8.04831 14.0079 7.95207 13.9762 7.86419ZM8 10.6003C7.48575 10.6003 6.98306 10.4478 6.55548 10.1621C6.1279 9.87637 5.79464 9.4703 5.59785 8.9952C5.40105 8.5201 5.34956 7.99731 5.44989 7.49294C5.55021 6.98858 5.79784 6.52529 6.16147 6.16166C6.5251 5.79804 6.98839 5.5504 7.49275 5.45008C7.99712 5.34975 8.5199 5.40124 8.995 5.59804C9.47011 5.79483 9.87618 6.12809 10.1619 6.55567C10.4476 6.98325 10.6001 7.48595 10.6001 8.00019C10.599 8.68945 10.3247 9.35017 9.83736 9.83755C9.34998 10.3249 8.68926 10.5992 8 10.6003Z" fill="#606483"/>
</svg>
