<svg width="12" height="10" viewBox="0 0 12 10" fill="none" xmlns="http://www.w3.org/2000/svg">
<path d="M5.43574 1.63301L6.00003 2.27752L6.56431 1.63301C7.03476 1.09568 7.76586 0.75 8.52135 0.75C9.85259 0.75 10.853 1.7525 10.853 2.99728C10.853 3.774 10.5007 4.54096 9.71576 5.47437C8.92289 6.4172 7.77452 7.4321 6.31635 8.71817L6.31527 8.71913L5.99814 8.99993L5.6843 8.72415C5.68407 8.72395 5.68384 8.72374 5.68361 8.72354C4.2256 7.43485 3.07738 6.41878 2.28446 5.47525C1.49934 4.541 1.14709 3.77402 1.14709 2.99728C1.14709 1.7525 2.14746 0.75 3.47871 0.75C4.23419 0.75 4.96529 1.09568 5.43574 1.63301Z" fill="#606483" stroke="#606483" stroke-width="1.5"/>
</svg>
