<svg width="16" height="16" viewBox="0 0 16 16" fill="none" xmlns="http://www.w3.org/2000/svg">
<path fill-rule="evenodd" clip-rule="evenodd" d="M9.70238 2.36605L10.7542 1.31425C11.0123 1.0561 11.3188 0.851328 11.6561 0.711618C11.9934 0.571908 12.3549 0.5 12.72 0.5C13.085 0.5 13.4465 0.571908 13.7838 0.711618C14.1211 0.851328 14.4276 1.0561 14.6857 1.31425C14.9439 1.5724 15.1487 1.87887 15.2884 2.21616C15.4281 2.55345 15.5 2.91496 15.5 3.28004C15.5 3.64512 15.4281 4.00662 15.2884 4.34391C15.1487 4.6812 14.9439 4.98767 14.6857 5.24582L13.6787 6.25285L9.70238 2.36605ZM8.76994 3.29849L2.16353 9.9049C1.71965 10.3482 1.41693 10.9129 1.29351 11.5279L0.5 15.5L4.47207 14.705C5.08708 14.582 5.65109 14.2805 6.0951 13.8365L12.7463 7.18529L8.76994 3.29849Z" fill="#606483"/>
</svg>
