<svg width="90" height="91" viewBox="0 0 90 91" fill="none" xmlns="http://www.w3.org/2000/svg">
<g clip-path="url(#clip0_1303_3069)">
<path d="M36.2281 83.5464L29.2504 82.1161L25.213 86.2978L11.4498 75.4351L20.6289 69.1708L30.3889 58.49C32.0245 56.6999 34.9159 56.9581 36.2082 59.0105L47.7713 72.2717C49.5188 74.276 49.0244 77.3741 46.7393 78.7351L39.9271 82.7918C38.7378 83.5107 37.6055 83.5718 36.2281 83.5464Z" fill="#E7EEF6"/>
<path d="M47.7713 72.2717L44.9499 69.0355L33.1835 76.0475C31.9943 76.7664 30.862 76.8276 29.4839 76.8022L23.3727 76.1443L18.0938 80.6783L25.2136 86.2978L29.2504 82.1154L36.2281 83.5464C37.6055 83.5711 38.7385 83.5107 39.9271 82.7918L46.7393 78.7351C49.0244 77.3741 49.5188 74.276 47.7713 72.2717Z" fill="#C4CDDF"/>
<path d="M47.4314 72.5546C46.0691 70.4418 44.4095 71.5109 43.0472 69.3974C41.6849 67.2846 43.3445 66.2148 41.9822 64.102C40.6192 61.9885 38.9603 63.0583 37.598 60.9448C36.235 58.8306 37.8946 57.7608 36.5316 55.6473C35.6987 54.3557 34.1901 51.6888 33.2714 51.3221L25.9181 54.9552L38.7144 75.137C39.9628 77.0741 42.5452 77.6323 44.4823 76.3833L46.9308 74.8054C47.6786 74.3227 47.9217 73.3229 47.4424 72.5724C47.439 72.5662 47.4355 72.5607 47.4314 72.5546Z" fill="#B6C2DA"/>
<path d="M26.2794 58.0794L20.5027 61.6438C19.4068 62.3201 17.9697 61.9795 17.2933 60.8836L14.0276 55.591C13.3513 54.4951 13.6919 53.0579 14.7877 52.3816L20.5645 48.8172C21.2429 48.3991 22.1321 48.6092 22.551 49.2876L26.7498 56.0929C27.1687 56.7713 26.9579 57.6605 26.2794 58.0794Z" fill="#B6C2DA"/>
<path d="M29.8237 39.1712L18.0986 46.4064C16.555 47.3581 16.0764 49.381 17.0281 50.9239L22.8104 60.2952C23.7627 61.8381 25.7849 62.3174 27.3285 61.365L39.0536 54.1305L76.14 46.0576L53.6737 9.64618L29.8237 39.1712Z" fill="#E7EEF6"/>
<path d="M70.8467 37.4787L33.9512 45.8619C33.9512 45.8619 21.2482 53.6993 19.4321 54.8206L22.8104 60.2952C23.7621 61.8381 25.7849 62.3174 27.3278 61.365L39.0536 54.1305L76.1401 46.0576L70.8467 37.4787Z" fill="#C4CDDF"/>
<path d="M39.0537 54.1305L27.3279 61.365C25.785 62.3174 23.7621 61.8381 22.8104 60.2952L17.0282 50.9239C16.0758 49.381 16.5551 47.3581 18.098 46.4064L29.8238 39.1712L39.0537 54.1305Z" fill="#C4CDDF"/>
<path d="M33.9512 45.8619C33.9512 45.8619 21.2482 53.6993 19.4321 54.8206L22.8104 60.2952C23.7621 61.8381 25.7849 62.3174 27.3278 61.365L33.1904 57.7478L39.0536 54.1305L33.9512 45.8619Z" fill="#B6C2DA"/>
<path d="M78.3647 48.6448L76.7641 49.6322C75.9347 50.1438 74.847 49.8863 74.3355 49.0568L50.1834 9.9139C49.6712 9.08374 49.9287 7.99678 50.7588 7.48454L52.3594 6.49715C53.1889 5.98491 54.2765 6.2424 54.7881 7.07256L78.9401 46.2155C79.4523 47.0449 79.1942 48.1326 78.3647 48.6448Z" fill="#C4CDDF"/>
<path d="M78.9402 46.2155L74.9673 39.7755L70.3619 42.6175L74.3356 49.0569C74.8471 49.8863 75.9348 50.1438 76.7642 49.6323L78.3648 48.6449C79.1943 48.1327 79.4525 47.045 78.9402 46.2155Z" fill="#B6C2DA"/>
<path d="M43.7922 77.8836C44.6649 79.3125 46.5312 79.7636 47.9601 78.8902L52.3787 76.1889C53.8069 75.3162 54.2573 73.4513 53.3846 72.0231C52.5119 70.5941 50.6456 70.1437 49.2174 71.0164L44.7981 73.7177C43.3706 74.5904 42.9201 76.4553 43.7922 77.8836Z" fill="#E7EEF6"/>
<path d="M53.3846 72.0231C53.0269 71.4374 52.5009 71.0192 51.9084 70.7865C52.0635 71.9407 51.5444 73.132 50.4863 73.7789L46.0671 76.4801C45.2238 76.9951 44.2303 77.0459 43.3768 76.7108C43.431 77.1146 43.5663 77.5142 43.7922 77.8843C44.6649 79.3132 46.5312 79.7637 47.9601 78.8902L52.3787 76.189C53.8069 75.3163 54.2567 73.4513 53.3846 72.0231Z" fill="#C4CDDF"/>
<path d="M41.9 71.9187C42.7857 73.3696 44.6802 73.8269 46.1304 72.9405L50.4707 70.2873C51.9202 69.4015 52.3775 67.5084 51.4924 66.0582C50.6066 64.608 48.7122 64.1507 47.262 65.0372L42.921 67.6904C41.4715 68.5761 41.0142 70.4692 41.9 71.9187Z" fill="#E7EEF6"/>
<path d="M51.4922 66.0582C51.1393 65.4807 50.6257 65.0639 50.0441 64.8229C50.1917 65.9875 49.6651 67.1843 48.5987 67.8359L44.2577 70.4891C43.385 71.0227 42.353 71.0666 41.4748 70.7034C41.5276 71.1215 41.6656 71.5356 41.8998 71.9187C42.7856 73.3696 44.68 73.8269 46.1302 72.9405L50.4705 70.2873C51.92 69.4015 52.3773 67.5084 51.4922 66.0582Z" fill="#C4CDDF"/>
<path d="M38.6645 66.7022C39.5503 68.1524 41.4447 68.6104 42.8949 67.7239L47.2359 65.0701C48.6854 64.1843 49.142 62.2912 48.2569 60.8417C47.3712 59.3908 45.4767 58.9335 44.0265 59.82L39.6855 62.4732C38.236 63.3589 37.7787 65.252 38.6645 66.7022Z" fill="#E7EEF6"/>
<path d="M48.2568 60.8418C47.9114 60.276 47.4115 59.8633 46.845 59.6202C46.9727 60.7704 46.4468 61.9445 45.3941 62.5879L41.0538 65.2411C40.1688 65.7822 39.1203 65.8199 38.2352 65.4409C38.2832 65.8742 38.4212 66.3047 38.6636 66.7016C39.5501 68.1525 41.4439 68.6098 42.8947 67.7233L47.2357 65.0701C48.6852 64.1844 49.1418 62.2913 48.2568 60.8418Z" fill="#C4CDDF"/>
<path d="M35.6142 61.3519C36.5 62.8021 38.3945 63.2594 39.8447 62.373L44.1856 59.7198C45.6351 58.834 46.0924 56.9409 45.2067 55.4907C44.3209 54.0405 42.4264 53.5832 40.9762 54.4697L36.6353 57.1229C35.1858 58.0087 34.7291 59.9017 35.6142 61.3519Z" fill="#E7EEF6"/>
<path d="M45.2067 55.4907C44.7995 54.8233 44.1774 54.3694 43.4839 54.1566C43.7489 55.398 43.2264 56.724 42.0824 57.4236L37.7415 60.0768C36.9587 60.5554 36.0468 60.6392 35.2338 60.3893C35.3046 60.7209 35.4281 61.0464 35.6142 61.3519C36.5 62.8021 38.3945 63.2594 39.8446 62.373L44.1856 59.7198C45.6351 58.834 46.0924 56.9409 45.2067 55.4907Z" fill="#C4CDDF"/>
<path d="M42.1264 65.0741L41.3217 65.5658C40.0548 66.3403 38.4178 65.9688 37.6639 64.737L36.3304 62.5562C35.6774 61.4892 34.2568 61.1719 33.1643 61.8496C32.0677 69.8985 20.6289 69.1707 20.6289 69.1707L27.7171 58.4947C28.1848 57.6858 28.8487 57.0019 29.648 56.5062L33.6484 54.0253C35.593 52.8196 38.1212 53.3826 39.2851 55.2819L43.0554 61.4349C43.8107 62.6688 43.3946 64.2989 42.1264 65.0741Z" fill="#E7EEF6"/>
<path d="M43.0547 61.4357L43.0238 61.3849C42.8055 61.7358 42.5047 62.0441 42.1264 62.2755L41.3209 62.7678C40.0548 63.5417 38.4178 63.1709 37.6639 61.9383L36.3304 59.7582C35.6774 58.6905 34.2567 58.374 33.1643 59.051C32.7042 62.4265 30.6402 65.6613 28.3365 67.8771C30.667 66.8533 32.729 65.042 33.1643 61.8498C34.2567 61.172 35.6774 61.4893 36.3304 62.5563L37.6639 64.7371C38.4178 65.9689 40.0548 66.3404 41.3209 65.5666L42.1264 65.0742C43.3946 64.299 43.8107 62.6689 43.0547 61.4357Z" fill="#C4CDDF"/>
<path d="M25.4347 86.5607L14.16 73.1629L17.8727 70.0387C17.9894 69.9405 18.1645 69.9556 18.2634 70.0723L29.1811 83.0465C29.2793 83.1632 29.2641 83.3383 29.1474 83.4372L25.4347 86.5607Z" fill="#D8DEEB"/>
<path d="M29.1804 83.0465L23.3727 76.1443L19.4479 79.4471L25.4347 86.5614L29.1467 83.4372C29.2642 83.3383 29.2793 83.1632 29.1804 83.0465Z" fill="#C4CDDF"/>
<path d="M71.9475 23.7252C71.4977 23.7252 71.059 23.4986 70.8063 23.088C70.419 22.4584 70.6154 21.6344 71.245 21.2471L78.4974 16.786C79.127 16.3987 79.951 16.5951 80.3376 17.2247C80.7248 17.8537 80.5285 18.6777 79.8995 19.0649L72.6472 23.5261C72.4281 23.6614 72.1864 23.7252 71.9475 23.7252Z" fill="#C4CDDF"/>
<path d="M88.6638 34.6476C88.6205 34.6476 88.5766 34.6455 88.5326 34.6414L77.8999 33.608C77.1645 33.5366 76.6262 32.8829 76.6976 32.1468C76.769 31.4121 77.4234 30.8724 78.1588 30.9452L88.7915 31.9779C89.5269 32.0493 90.0652 32.7037 89.9938 33.4391C89.9265 34.1305 89.3442 34.6476 88.6638 34.6476Z" fill="#C4CDDF"/>
<path d="M65.8617 13.8354C65.7003 13.8354 65.5362 13.8058 65.3769 13.744C64.6882 13.4762 64.3477 12.7003 64.6154 12.0123L68.4881 2.05596C68.7559 1.36726 69.5318 1.02737 70.2199 1.29447C70.9086 1.56226 71.2498 2.33749 70.982 3.02619L67.1093 12.9819C66.9034 13.5113 66.3973 13.8354 65.8617 13.8354Z" fill="#C4CDDF"/>
<path d="M26.2395 86.4357L14.0536 72.1411C13.9568 72.0272 13.7892 72.0045 13.6649 72.089L0.686646 82.3337C0.253372 82.6757 0 83.1982 0 83.7509V87.9189C0 88.9159 0.808182 89.7241 1.80588 89.7241H23.0363C23.5828 89.7241 24.1006 89.4762 24.4439 89.0498L26.2271 86.8299C26.3322 86.7214 26.337 86.5504 26.2395 86.4357Z" fill="#C4CDDF"/>
<path d="M26.2395 86.4358L20.4613 79.6572L11.9545 89.7241H23.0363C23.5828 89.7241 24.1006 89.4763 24.4439 89.0499L26.2271 86.8299C26.3322 86.7214 26.337 86.5505 26.2395 86.4358Z" fill="#B6C2DA"/>
</g>
<defs>
<clipPath id="clip0_1303_3069">
<rect width="90" height="90" fill="white" transform="translate(0 0.5)"/>
</clipPath>
</defs>
</svg>
